<mxfile host="app.diagrams.net" modified="2024-03-31T19:19:20.212Z" agent="Mozilla/5.0 (Windows NT 10.0; Win64; x64) AppleWebKit/537.36 (KHTML, like Gecko) Chrome/123.0.0.0 Safari/537.36" etag="ElQIIJncfYdMPpThgvoa" version="24.2.1" type="device">
  <diagram name="Page-1" id="M2AKlNWwku9D8GlE5gz1">
    <mxGraphModel dx="1434" dy="746" grid="1" gridSize="10" guides="1" tooltips="1" connect="1" arrows="1" fold="1" page="1" pageScale="1" pageWidth="850" pageHeight="1100" math="0" shadow="0">
      <root>
        <mxCell id="0" />
        <mxCell id="1" parent="0" />
        <mxCell id="Aq457JElN61kUpW8-w1_-4" style="edgeStyle=orthogonalEdgeStyle;rounded=0;orthogonalLoop=1;jettySize=auto;html=1;exitX=0.5;exitY=1;exitDx=0;exitDy=0;exitPerimeter=0;entryX=0.5;entryY=0;entryDx=0;entryDy=0;" parent="1" source="Aq457JElN61kUpW8-w1_-1" target="Aq457JElN61kUpW8-w1_-3" edge="1">
          <mxGeometry relative="1" as="geometry" />
        </mxCell>
        <mxCell id="Aq457JElN61kUpW8-w1_-1" value="START" style="strokeWidth=2;html=1;shape=mxgraph.flowchart.terminator;whiteSpace=wrap;" parent="1" vertex="1">
          <mxGeometry x="218.75" y="248" width="100" height="60" as="geometry" />
        </mxCell>
        <mxCell id="Aq457JElN61kUpW8-w1_-41" style="edgeStyle=orthogonalEdgeStyle;rounded=0;orthogonalLoop=1;jettySize=auto;html=1;exitX=0.5;exitY=1;exitDx=0;exitDy=0;entryX=0.5;entryY=0;entryDx=0;entryDy=0;" parent="1" source="Aq457JElN61kUpW8-w1_-2" target="Aq457JElN61kUpW8-w1_-40" edge="1">
          <mxGeometry relative="1" as="geometry" />
        </mxCell>
        <mxCell id="Aq457JElN61kUpW8-w1_-2" value="Sense 2 &lt;br&gt;Colors &lt;br&gt;On Die" style="shape=parallelogram;html=1;strokeWidth=2;perimeter=parallelogramPerimeter;whiteSpace=wrap;rounded=1;arcSize=12;size=0.23;" parent="1" vertex="1">
          <mxGeometry x="53.75" y="331" width="100" height="60" as="geometry" />
        </mxCell>
        <mxCell id="Aq457JElN61kUpW8-w1_-5" style="edgeStyle=orthogonalEdgeStyle;rounded=0;orthogonalLoop=1;jettySize=auto;html=1;exitX=0;exitY=0.5;exitDx=0;exitDy=0;entryX=1;entryY=0.5;entryDx=0;entryDy=0;" parent="1" source="Aq457JElN61kUpW8-w1_-3" target="Aq457JElN61kUpW8-w1_-2" edge="1">
          <mxGeometry relative="1" as="geometry" />
        </mxCell>
        <mxCell id="Aq457JElN61kUpW8-w1_-3" value="Die Placed at A" style="rounded=1;whiteSpace=wrap;html=1;absoluteArcSize=1;arcSize=14;strokeWidth=2;" parent="1" vertex="1">
          <mxGeometry x="211.25" y="336" width="115" height="50" as="geometry" />
        </mxCell>
        <mxCell id="Aq457JElN61kUpW8-w1_-35" style="edgeStyle=orthogonalEdgeStyle;rounded=0;orthogonalLoop=1;jettySize=auto;html=1;entryX=0.5;entryY=0;entryDx=0;entryDy=0;exitX=0.5;exitY=1;exitDx=0;exitDy=0;" parent="1" source="Aq457JElN61kUpW8-w1_-6" target="Aq457JElN61kUpW8-w1_-3" edge="1">
          <mxGeometry relative="1" as="geometry">
            <Array as="points">
              <mxPoint x="404" y="950" />
              <mxPoint x="520" y="950" />
              <mxPoint x="520" y="320" />
              <mxPoint x="269" y="320" />
            </Array>
          </mxGeometry>
        </mxCell>
        <mxCell id="Aq457JElN61kUpW8-w1_-6" value="Arm Returns to A" style="rounded=1;whiteSpace=wrap;html=1;absoluteArcSize=1;arcSize=14;strokeWidth=2;" parent="1" vertex="1">
          <mxGeometry x="343.75" y="880" width="120" height="50" as="geometry" />
        </mxCell>
        <mxCell id="Aq457JElN61kUpW8-w1_-38" style="edgeStyle=orthogonalEdgeStyle;rounded=0;orthogonalLoop=1;jettySize=auto;html=1;entryX=0.5;entryY=0;entryDx=0;entryDy=0;" parent="1" source="Aq457JElN61kUpW8-w1_-8" target="Aq457JElN61kUpW8-w1_-37" edge="1">
          <mxGeometry relative="1" as="geometry" />
        </mxCell>
        <mxCell id="Aq457JElN61kUpW8-w1_-8" value="Pick Up Die" style="rounded=1;whiteSpace=wrap;html=1;absoluteArcSize=1;arcSize=14;strokeWidth=2;" parent="1" vertex="1">
          <mxGeometry x="343.75" y="695" width="120" height="50" as="geometry" />
        </mxCell>
        <mxCell id="Aq457JElN61kUpW8-w1_-10" value="Get Desired &lt;br&gt;End Face&lt;br&gt;(or choose &lt;br&gt;Black)" style="shape=parallelogram;html=1;strokeWidth=2;perimeter=parallelogramPerimeter;whiteSpace=wrap;rounded=1;arcSize=12;size=0.23;" parent="1" vertex="1">
          <mxGeometry x="205" y="410" width="117.5" height="70" as="geometry" />
        </mxCell>
        <mxCell id="Aq457JElN61kUpW8-w1_-14" style="edgeStyle=orthogonalEdgeStyle;rounded=0;orthogonalLoop=1;jettySize=auto;html=1;entryX=0.5;entryY=0;entryDx=0;entryDy=0;" parent="1" source="Aq457JElN61kUpW8-w1_-12" target="Aq457JElN61kUpW8-w1_-8" edge="1">
          <mxGeometry relative="1" as="geometry" />
        </mxCell>
        <mxCell id="Aq457JElN61kUpW8-w1_-15" value="Yes" style="edgeLabel;html=1;align=center;verticalAlign=middle;resizable=0;points=[];" parent="Aq457JElN61kUpW8-w1_-14" vertex="1" connectable="0">
          <mxGeometry x="-0.8625" y="9" relative="1" as="geometry">
            <mxPoint as="offset" />
          </mxGeometry>
        </mxCell>
        <mxCell id="Aq457JElN61kUpW8-w1_-27" style="edgeStyle=orthogonalEdgeStyle;rounded=0;orthogonalLoop=1;jettySize=auto;html=1;entryX=0.5;entryY=0;entryDx=0;entryDy=0;exitX=0;exitY=0.5;exitDx=0;exitDy=0;exitPerimeter=0;" parent="1" source="Aq457JElN61kUpW8-w1_-12" target="Aq457JElN61kUpW8-w1_-18" edge="1">
          <mxGeometry relative="1" as="geometry" />
        </mxCell>
        <mxCell id="Aq457JElN61kUpW8-w1_-29" value="No" style="edgeLabel;html=1;align=center;verticalAlign=middle;resizable=0;points=[];" parent="Aq457JElN61kUpW8-w1_-27" vertex="1" connectable="0">
          <mxGeometry x="-0.8286" y="-5" relative="1" as="geometry">
            <mxPoint x="-3" y="-4" as="offset" />
          </mxGeometry>
        </mxCell>
        <mxCell id="Aq457JElN61kUpW8-w1_-12" value="Desired&lt;br&gt;Face On Top?" style="strokeWidth=2;html=1;shape=mxgraph.flowchart.decision;whiteSpace=wrap;" parent="1" vertex="1">
          <mxGeometry x="208.75" y="500" width="110" height="110" as="geometry" />
        </mxCell>
        <mxCell id="Aq457JElN61kUpW8-w1_-13" style="edgeStyle=orthogonalEdgeStyle;rounded=0;orthogonalLoop=1;jettySize=auto;html=1;exitX=0.5;exitY=1;exitDx=0;exitDy=0;entryX=0.5;entryY=0;entryDx=0;entryDy=0;entryPerimeter=0;" parent="1" source="Aq457JElN61kUpW8-w1_-10" target="Aq457JElN61kUpW8-w1_-12" edge="1">
          <mxGeometry relative="1" as="geometry" />
        </mxCell>
        <mxCell id="Aq457JElN61kUpW8-w1_-26" value="" style="edgeStyle=orthogonalEdgeStyle;rounded=0;orthogonalLoop=1;jettySize=auto;html=1;" parent="1" source="Aq457JElN61kUpW8-w1_-18" target="Aq457JElN61kUpW8-w1_-25" edge="1">
          <mxGeometry relative="1" as="geometry" />
        </mxCell>
        <mxCell id="Aq457JElN61kUpW8-w1_-18" value="Get # of &quot;Moves&quot; From Current Top Face&lt;br&gt;to Desired Face (N)" style="rounded=1;whiteSpace=wrap;html=1;absoluteArcSize=1;arcSize=14;strokeWidth=2;" parent="1" vertex="1">
          <mxGeometry x="58.75" y="580" width="150" height="60" as="geometry" />
        </mxCell>
        <mxCell id="Aq457JElN61kUpW8-w1_-31" value="" style="edgeStyle=orthogonalEdgeStyle;rounded=0;orthogonalLoop=1;jettySize=auto;html=1;" parent="1" source="Aq457JElN61kUpW8-w1_-25" target="Aq457JElN61kUpW8-w1_-30" edge="1">
          <mxGeometry relative="1" as="geometry" />
        </mxCell>
        <mxCell id="Aq457JElN61kUpW8-w1_-25" value="Choose Face to Move To:&lt;br&gt;1. Is N-1 &quot;Moves&quot; to Desired Face&lt;br&gt;2. Is Reachable From Current Face" style="whiteSpace=wrap;html=1;rounded=1;arcSize=14;strokeWidth=2;" parent="1" vertex="1">
          <mxGeometry x="58.75" y="680" width="150" height="80" as="geometry" />
        </mxCell>
        <mxCell id="Aq457JElN61kUpW8-w1_-33" value="" style="edgeStyle=orthogonalEdgeStyle;rounded=0;orthogonalLoop=1;jettySize=auto;html=1;" parent="1" source="Aq457JElN61kUpW8-w1_-30" target="Aq457JElN61kUpW8-w1_-32" edge="1">
          <mxGeometry relative="1" as="geometry" />
        </mxCell>
        <mxCell id="Aq457JElN61kUpW8-w1_-30" value="Calculate How To Reach This Face (Axis, Spin)" style="whiteSpace=wrap;html=1;rounded=1;arcSize=14;strokeWidth=2;" parent="1" vertex="1">
          <mxGeometry x="56.25" y="790" width="155" height="60" as="geometry" />
        </mxCell>
        <mxCell id="Aq457JElN61kUpW8-w1_-32" value="Arm Turns Die to New Face" style="whiteSpace=wrap;html=1;rounded=1;arcSize=14;strokeWidth=2;" parent="1" vertex="1">
          <mxGeometry x="75" y="880" width="118.75" height="50" as="geometry" />
        </mxCell>
        <mxCell id="Aq457JElN61kUpW8-w1_-34" style="edgeStyle=orthogonalEdgeStyle;rounded=0;orthogonalLoop=1;jettySize=auto;html=1;exitX=0.5;exitY=1;exitDx=0;exitDy=0;" parent="1" source="Aq457JElN61kUpW8-w1_-32" edge="1">
          <mxGeometry relative="1" as="geometry">
            <mxPoint x="263.75" y="610" as="targetPoint" />
          </mxGeometry>
        </mxCell>
        <mxCell id="Aq457JElN61kUpW8-w1_-39" style="edgeStyle=orthogonalEdgeStyle;rounded=0;orthogonalLoop=1;jettySize=auto;html=1;exitX=0.5;exitY=1;exitDx=0;exitDy=0;entryX=0.5;entryY=0;entryDx=0;entryDy=0;" parent="1" source="Aq457JElN61kUpW8-w1_-37" target="Aq457JElN61kUpW8-w1_-6" edge="1">
          <mxGeometry relative="1" as="geometry" />
        </mxCell>
        <mxCell id="Aq457JElN61kUpW8-w1_-37" value="Arm Moves to B,&lt;br&gt;Releases Die" style="rounded=1;whiteSpace=wrap;html=1;absoluteArcSize=1;arcSize=14;strokeWidth=2;" parent="1" vertex="1">
          <mxGeometry x="343.75" y="790" width="120" height="50" as="geometry" />
        </mxCell>
        <mxCell id="Aq457JElN61kUpW8-w1_-42" style="edgeStyle=orthogonalEdgeStyle;rounded=0;orthogonalLoop=1;jettySize=auto;html=1;exitX=1;exitY=0.5;exitDx=0;exitDy=0;entryX=0;entryY=0.5;entryDx=0;entryDy=0;" parent="1" source="Aq457JElN61kUpW8-w1_-40" target="Aq457JElN61kUpW8-w1_-10" edge="1">
          <mxGeometry relative="1" as="geometry" />
        </mxCell>
        <mxCell id="Aq457JElN61kUpW8-w1_-40" value="Orient Code&#39;s Die Model&lt;br&gt;to Match Reality" style="rounded=1;whiteSpace=wrap;html=1;absoluteArcSize=1;arcSize=14;strokeWidth=2;" parent="1" vertex="1">
          <mxGeometry x="30" y="415" width="147.5" height="60" as="geometry" />
        </mxCell>
      </root>
    </mxGraphModel>
  </diagram>
</mxfile>
